#!OML:ASF F:\VICON\USERDATA\INSTALL\rory3\rory3.ASF
:FULLY-SPECIFIED
:DEGREES
1178
root -2.32551 17.563 2.86908 187.885 96.4327 185.352
lowerback 7.46151 0.119856 0.0236988
upperback 3.44895 0.377785 4.72166
thorax -0.64826 0.222282 4.8496
lowerneck -11.5947 1.24281 -5.55303
upperneck 40.0826 5.95315 -0.764622
head 16.189 2.18592 1.83001
rclavicle -2.38542e-015 -5.56597e-014
rhumerus -27.5976 2.54648 -79.5587
rradius 41.6733
rwrist 20.8134
rhand -22.3776 6.09381
rfingers 7.12502
rthumb 4.04418 -23.8476
lclavicle -2.38542e-015 -5.56597e-014
lhumerus -31.8185 -9.79829 97.1624
lradius 51.229
lwrist -1.69653
lhand -16.7993 29.7098
lfingers 7.12502
lthumb 9.42897 59.4789
rfemur -25.8022 -4.89973 25.3184
rtibia 37.0892
rfoot -9.91268 1.46096
rtoes 7.34717
lfemur -28.796 0.517266 -21.7523
ltibia 67.6447
lfoot -15.6248 -1.6566
ltoes -27.0982
1179
root -2.24746 17.5499 2.86481 186.088 96.6604 183.694
lowerback 7.59966 0.121815 0.395658
upperback 3.50395 0.411967 4.72523
thorax -0.669063 0.244548 4.63878
lowerneck -11.5714 1.24426 -5.44596
upperneck 40.0851 5.9426 -0.823245
head 16.1909 2.18904 1.78321
rclavicle -2.50469e-014 -6.36111e-015
rhumerus -27.5015 2.3678 -79.5088
rradius 41.7635
rwrist 21.0013
rhand -22.3035 6.41565
rfingers 7.12502
rthumb 4.11568 -23.5243
lclavicle -2.50469e-014 -6.36111e-015
lhumerus -31.5102 -9.31428 96.9477
lradius 51.6196
lwrist -1.33654
lhand -16.9377 29.8463
lfingers 7.12502
lthumb 9.29543 59.6214
rfemur -25.5011 -5.04173 25.4628
rtibia 37.4127
rfoot -10.3639 1.82837
rtoes 7.41771
lfemur -29.8481 0.482257 -21.5002
ltibia 67.2456
lfoot -15.9121 -1.60906
ltoes -28.2222
1180
root -2.1699 17.5416 2.85689 185.788 96.9479 183.496
lowerback 7.70925 0.148499 0.543056
upperback 3.52485 0.463736 4.7641
thorax -0.711493 0.273029 4.59155
lowerneck -11.4954 1.23548 -5.45445
upperneck 40.1226 5.94718 -0.858282
head 16.1944 2.18701 1.76961
rclavicle 5.1684e-015 8.5875e-014
rhumerus -27.5119 2.40449 -79.3556
rradius 41.9589
rwrist 21.1299
rhand -22.3338 6.5592
rfingers 7.12502
rthumb 4.08648 -23.3814
lclavicle 5.1684e-015 8.5875e-014
lhumerus -31.3054 -9.06545 96.8713
lradius 52.0897
lwrist -0.655172
lhand -16.6695 29.8221
lfingers 7.12502
lthumb 9.55421 59.5855
rfemur -25.2722 -5.06628 25.3752
rtibia 37.7313
rfoot -10.6962 2.22798
rtoes 8.34623
lfemur -30.8409 0.334666 -21.4368
ltibia 66.7092
lfoot -16.2835 -1.68907
ltoes -27.3377
1181
root -2.09281 17.5452 2.84894 185.388 97.2668 183.163
lowerback 7.79554 0.171096 0.722501
upperback 3.56498 0.512865 4.83013
thorax -0.720651 0.300456 4.55483
lowerneck -11.4736 1.2361 -5.71503
upperneck 40.1232 5.97137 -0.741811
head 16.1757 2.17406 1.86899
rclavicle -3.57812e-015 7.95139e-015
rhumerus -27.5005 2.57538 -79.2168
rradius 42.2627
rwrist 21.2094
rhand -22.4232 6.38336
rfingers 7.12502
rthumb 4.00015 -23.5588
lclavicle -3.57812e-015 7.95139e-015
lhumerus -31.0322 -8.81012 96.8192
lradius 52.5161
lwrist 0.0655822
lhand -16.4878 29.7026
lfingers 7.12502
lthumb 9.72952 59.4579
rfemur -25.0833 -4.8106 25.2422
rtibia 38.0273
rfoot -10.7914 2.52668
rtoes 9.70558
lfemur -31.8051 0.361189 -21.322
ltibia 66.0842
lfoot -16.467 -1.90546
ltoes -23.6902
1182
root -2.01552 17.5485 2.8379 184.619 97.6011 182.462
lowerback 7.91734 0.199789 1.0133
upperback 3.5801 0.579778 4.87044
thorax -0.775345 0.338254 4.42603
lowerneck -11.5238 1.26574 -5.85253
upperneck 40.1873 6.03226 -0.655442
head 16.2118 2.1876 1.94377
rclavicle 4.37326e-015 4.45278e-014
rhumerus -27.5282 2.64163 -79.0791
rradius 42.5988
rwrist 21.1304
rhand -22.4059 6.12095
rfingers 7.12502
rthumb 4.01681 -23.8209
lclavicle 4.37326e-015 4.45278e-014
lhumerus -30.7593 -8.44155 96.7469
lradius 52.8744
lwrist 0.688675
lhand -16.5641 30.0528
lfingers 7.12502
lthumb 9.65592 59.8115
rfemur -24.8635 -4.60548 25.2044
rtibia 38.278
rfoot -10.9573 2.70895
rtoes 9.41731
lfemur -32.7351 0.471094 -21.1436
ltibia 65.4385
lfoot -16.6787 -2.4531
ltoes -21.4622
1183
root -1.93899 17.5431 2.82488 183.701 98.0032 181.583
lowerback 8.05419 0.26155 1.37981
upperback 3.52162 0.69587 4.84175
thorax -0.915719 0.400716 4.17701
lowerneck -11.3999 1.27212 -5.68667
upperneck 40.237 6.05007 -0.785822
head 16.2198 2.20612 1.85961
rclavicle 1.15295e-014 -1.90833e-014
rhumerus -27.6383 2.47616 -79.0474
rradius 42.7744
rwrist 21.0643
rhand -22.4847 6.03405
rfingers 7.12502
rthumb 3.94072 -23.9093
lclavicle 1.15295e-014 -1.90833e-014
lhumerus -30.6355 -8.27755 96.5889
lradius 53.2587
lwrist 1.31231
lhand -16.6928 30.4732
lfingers 7.12502
lthumb 9.53172 60.2376
rfemur -24.6154 -4.54151 25.2578
rtibia 38.4753
rfoot -11.4716 2.91852
rtoes 7.92892
lfemur -33.6804 0.592419 -20.9143
ltibia 64.7976
lfoot -17.108 -3.28728
ltoes -20.8021
1184
root -1.8644 17.5339 2.81184 182.42 98.4153 180.403
lowerback 8.24549 0.282787 1.72635
upperback 3.54742 0.763707 4.90227
thorax -0.995637 0.439518 4.03745
lowerneck -11.4046 1.27507 -5.77784
upperneck 40.2542 6.08698 -0.804854
head 16.2287 2.20376 1.87372
rclavicle 1.43125e-014 -6.36111e-015
rhumerus -27.6353 2.51662 -79.0223
rradius 42.9809
rwrist 21.0675
rhand -22.4597 6.00386
rfingers 7.12502
rthumb 3.96483 -23.939
lclavicle 1.43125e-014 -6.36111e-015
lhumerus -30.4681 -8.21565 96.527
lradius 53.7367
lwrist 2.29555
lhand -16.6695 30.6737
lfingers 7.12502
lthumb 9.55425 60.4371
rfemur -24.2815 -4.52612 25.3575
rtibia 38.6288
rfoot -12.3024 3.28484
rtoes 8.1065
lfemur -34.5248 0.703382 -20.5956
ltibia 64.1336
lfoot -17.3523 -3.8859
ltoes -19.3965
1185
root -1.78901 17.5336 2.79653 183.025 98.9497 181.205
lowerback 8.49364 0.383618 1.8299
upperback 3.64177 0.914953 4.86894
thorax -1.04172 0.517006 3.92918
lowerneck -11.4777 1.27664 -5.7505
upperneck 40.279 6.13073 -0.912757
head 16.2669 2.20812 1.83186
rclavicle 1.59028e-014 4.77083e-015
rhumerus -27.6245 2.60077 -78.9398
rradius 43.2937
rwrist 21.0236
rhand -22.3361 6.1467
rfingers 7.12502
rthumb 4.08418 -23.7939
lclavicle 1.59028e-014 4.77083e-015
lhumerus -30.3163 -8.35993 96.4542
lradius 54.329
lwrist 3.19734
lhand -16.5357 30.7304
lfingers 7.12502
lthumb 9.68332 60.4878
rfemur -23.8913 -4.51865 25.1252
rtibia 38.7316
rfoot -13.1009 3.68553
rtoes 9.64742
lfemur -35.1816 0.938074 -20.5804
ltibia 63.3576
lfoot -17.3932 -4.39781
ltoes -18.4017
1186
root -1.7128 17.5359 2.78159 184.813 99.5591 183.166
lowerback 8.68666 0.52137 1.79198
upperback 3.70371 1.09583 4.74052
thorax -1.09248 0.606497 3.79783
lowerneck -11.3658 1.30787 -5.73869
upperneck 40.1757 6.18332 -0.999481
head 16.1885 2.22524 1.794
rclavicle -2.82274e-014 -3.65764e-014
rhumerus -27.6884 2.82671 -78.9023
rradius 43.6395
rwrist 20.8138
rhand -22.4011 5.93043
rfingers 7.12502
rthumb 4.0214 -24.0114
lclavicle -2.82274e-014 -3.65764e-014
lhumerus -30.1874 -8.45783 96.207
lradius 54.8017
lwrist 3.14839
lhand -16.4957 30.6468
lfingers 7.12502
lthumb 9.72188 60.4024
rfemur -23.5503 -4.35284 24.6739
rtibia 38.8225
rfoot -13.5417 4.18034
rtoes 10.9914
lfemur -35.7912 1.29806 -20.7736
ltibia 62.4649
lfoot -17.331 -5.05555
ltoes -18.2156
1187
root -1.63577 17.5442 2.76477 185.968 100.104 184.436
lowerback 8.78716 0.608364 1.81619
upperback 3.75761 1.21458 4.7046
thorax -1.0972 0.666002 3.73447
lowerneck -11.2523 1.33809 -5.86634
upperneck 40.1041 6.27081 -1.06164
head 16.1219 2.23955 1.79808
rclavicle 2.38542e-015 3.65764e-014
rhumerus -27.6733 3.01398 -78.7596
rradius 44.0044
rwrist 20.6605
rhand -22.3432 5.94214
rfingers 7.12502
rthumb 4.07732 -23.9986
lclavicle 2.38542e-015 3.65764e-014
lhumerus -30.0697 -8.36697 96.0376
lradius 55.2878
lwrist 3.02293
lhand -16.4184 30.4286
lfingers 7.12502
lthumb 9.7965 60.1807
rfemur -23.2111 -4.09931 24.2808
rtibia 38.8665
rfoot -13.6577 4.77084
rtoes 11.3937
lfemur -36.3808 1.65978 -20.8706
ltibia 61.4641
lfoot -17.0187 -5.79457
ltoes -15.7525
